<?xml version="1.0" encoding="UTF-8" standalone="no"?><!DOCTYPE svg PUBLIC "-//W3C//DTD SVG 1.1//EN" "http://www.w3.org/Graphics/SVG/1.1/DTD/svg11.dtd"><svg width="100%" height="100%" viewBox="0 0 6000 2500" version="1.1" xmlns="http://www.w3.org/2000/svg" xmlns:xlink="http://www.w3.org/1999/xlink" xml:space="preserve" xmlns:serif="http://www.serif.com/" style="fill-rule:evenodd;clip-rule:evenodd;stroke-linejoin:round;stroke-miterlimit:2;"><path d="M6077.538,1778.062l761.583,0l0,2106.354l-7307.067,0l-0,-2106.354l230.921,0c-5.508,-41.125 31.296,-87.646 119.458,-140.246c918.267,-547.854 1743.463,-525.525 1743.463,-525.525c0,0 254.383,-18.612 676.292,167.521c421.904,186.133 739.521,248.179 739.521,248.179l-617.054,-262.817c146.654,3.488 1043.983,-339.017 1428.662,-301.792c384.679,37.225 2425.958,674.433 2425.958,674.433l-201.733,33.058l0,107.188l-0.004,0Z" style="fill:url(#_Linear1);"/><path d="M1120.592,459.806l0,208.686l-45.386,170.504l107.524,789.652c0,0 -162.045,55.5 -243.068,55.5c-81.023,0 -243.068,-55.5 -243.068,-55.5l107.524,-789.652l-46.096,-170.504l0,-208.686l43.598,0l0,60.596l36.145,0l0,-60.596l43.598,0l0,60.596l36.145,0l0,-60.596l43.598,0l0,60.596l36.145,0l0,-60.596l43.598,0l0,60.596l36.145,0l0,-60.596l43.598,0Zm-248.113,373.8l134.366,0l0,-148.277l-0.356,0c-3.485,-33.816 -32.096,-44.882 -66.826,-44.882c-34.731,0 -63.342,11.066 -66.826,44.882l-0.356,0l0,148.277Z" style="fill:#d7d7d7;"/><path d="M3631.64,636.296l0,84.598l-18.399,69.12l43.589,320.113c0,0 -65.691,22.499 -98.536,22.499c-32.845,0 -98.536,-22.499 -98.536,-22.499l43.589,-320.113l-18.687,-69.12l0,-84.598l17.674,0l0,24.565l14.653,0l0,-24.565l17.674,0l0,24.565l14.653,0l0,-24.565l17.674,0l0,24.565l14.653,0l0,-24.565l17.674,0l0,24.565l14.653,0l0,-24.565l17.674,0Zm-100.581,151.533l54.47,0l0,-60.109l-0.144,0c-1.413,-13.709 -13.011,-18.195 -27.09,-18.195c-14.079,0 -25.678,4.486 -27.09,18.195l-0.144,0l0,60.109Z" style="fill:#8a8a8a;"/><path d="M5621.067,911.817l0,115.285l-25.073,94.192l59.4,436.229c0,0 -89.519,30.66 -134.278,30.66c-44.759,0 -134.278,-30.66 -134.278,-30.66l59.4,-436.229l-25.465,-94.192l0,-115.285l24.085,0l0,33.475l19.968,0l0,-33.475l24.085,0l0,33.475l19.968,0l0,-33.475l24.085,0l0,33.475l19.968,0l0,-33.475l24.085,0l0,33.475l19.968,0l0,-33.475l24.085,0Zm-137.065,206.499l74.228,0l0,-81.913l-0.197,0c-1.925,-18.681 -17.731,-24.795 -36.917,-24.795c-19.186,0 -34.992,6.113 -36.917,24.795l-0.197,0l0,81.913Z" style="fill:#b1b1b1;"/><defs><linearGradient id="_Linear1" x1="0" y1="0" x2="1" y2="0" gradientUnits="userSpaceOnUse" gradientTransform="matrix(0,-3533.933301,3533.933301,0,3000,3884.415721)"><stop offset="0" style="stop-color:#1e1e24;stop-opacity:1"/><stop offset="0.57" style="stop-color:#57575f;stop-opacity:1"/><stop offset="1" style="stop-color:#71717a;stop-opacity:1"/></linearGradient></defs></svg>