<?xml version="1.0" encoding="UTF-8" standalone="no"?><!DOCTYPE svg PUBLIC "-//W3C//DTD SVG 1.1//EN" "http://www.w3.org/Graphics/SVG/1.1/DTD/svg11.dtd"><svg width="100%" height="100%" viewBox="0 0 6000 2500" version="1.1" xmlns="http://www.w3.org/2000/svg" xmlns:xlink="http://www.w3.org/1999/xlink" xml:space="preserve" xmlns:serif="http://www.serif.com/" style="fill-rule:evenodd;clip-rule:evenodd;stroke-linejoin:round;stroke-miterlimit:2;"><g><g><path d="M1378.789,1451.079l0.426,-2.145c0.343,-1.73 0.049,-3.181 -0.881,-4.355c-0.931,-1.173 -2.303,-1.85 -4.117,-2.03l-13.261,-1.282c-3.157,-0.327 -5.781,-1.312 -7.872,-2.955c-2.091,-1.643 -3.539,-3.818 -4.344,-6.525c-0.806,-2.707 -0.871,-5.761 -0.196,-9.163l1.458,-7.352l12.056,2.392l-0.944,4.757c-0.332,1.672 -0.118,3.078 0.64,4.217c0.759,1.139 1.924,1.805 3.497,1.997l13.261,1.282c2.687,0.293 4.76,1.499 6.219,3.616c1.46,2.117 2.162,4.819 2.107,8.104c1.146,-3.069 2.826,-5.297 5.041,-6.686c2.215,-1.388 4.648,-1.7 7.301,-0.934l12.66,3.86c1.516,0.481 2.842,0.339 3.978,-0.424c1.136,-0.763 1.876,-2.01 2.219,-3.74l0.944,-4.757l12.056,2.392l-1.458,7.352c-0.675,3.402 -1.933,6.209 -3.774,8.421c-1.841,2.212 -4.07,3.672 -6.687,4.382c-2.617,0.709 -5.47,0.578 -8.559,-0.395l-12.23,-3.775c-1.803,-0.537 -3.344,-0.439 -4.624,0.296c-1.28,0.735 -2.091,1.967 -2.434,3.697l-0.427,2.153l-5.78,-1.696c-0.122,-0.036 -0.247,-0.061 -0.373,-0.074l-5.902,-0.63Z" style="fill:#a855f7;fill-rule:nonzero;"/><path d="M1361.96,1571.653l20.09,1.083l-1.67,8.416l-0.012,0.06l-0.008,0.042l-2.198,11.078c-0.309,1.557 -2.263,2.482 -4.361,2.066l-7.602,-1.508c-2.098,-0.416 -3.55,-2.018 -3.242,-3.574l1.099,-5.539l-10.338,-2.051l-1.099,5.539c-0.309,1.557 -2.263,2.482 -4.361,2.066l-7.602,-1.508c-2.098,-0.416 -3.55,-2.018 -3.242,-3.574l2.198,-11.078l0.009,-0.042l0.011,-0.06l1.687,-8.505l19.662,6.895c0.315,0.111 0.645,0.176 0.978,0.194Z" style="fill:#a855f7;"/><path d="M1362.17,1568.028l-43.759,-15.346c-2.801,-0.556 -4.632,-3.236 -4.087,-5.982l4.684,-47.714c1.146,0.814 2.38,1.622 3.688,2.42c17.434,10.639 48.16,19.946 48.16,19.946c0.133,0.04 0.269,0.067 0.407,0.081c0,0 31.952,3.128 52.127,-0.05c1.619,-0.255 3.165,-0.553 4.618,-0.895l-13.645,46.06c-0.545,2.746 -3.261,4.525 -6.062,3.969l-46.133,-2.488Zm16.929,-19.199c5.07,1.006 4.18,-7.748 6.91,-7.606c0.068,0.004 0.135,0.012 0.202,0.026l12.26,2.432c2.978,0.591 -1.512,8.692 3.679,9.721l2.171,-10.945c0.599,-3.02 -1.332,-5.952 -4.309,-6.543l-12.26,-2.432c-2.978,-0.591 -5.882,1.382 -6.481,4.402l-2.171,10.945Zm-48.993,-9.72c5.07,1.006 4.18,-7.748 6.91,-7.606c0.068,0.004 0.135,0.012 0.202,0.026l12.26,2.432c2.978,0.591 -1.512,8.692 3.679,9.721l2.171,-10.945c0.599,-3.02 -1.332,-5.952 -4.309,-6.543l-12.26,-2.432c-2.978,-0.591 -5.882,1.382 -6.481,4.402l-2.171,10.945Z" style="fill:#a855f7;"/><path d="M1314.43,1486.298l7.321,-36.904l62.274,6.644l60.094,17.633l-7.321,36.904c-0.24,1.212 -1.186,2.138 -2.503,2.965c-0.192,0.121 -0.392,0.238 -0.598,0.353c-1.194,0.663 -2.626,1.228 -4.243,1.713c-1.987,0.596 -4.253,1.07 -6.705,1.456c-18.818,2.964 -48.097,0.299 -50.839,0.038c-2.634,-0.806 -30.713,-9.52 -46.974,-19.443c-2.027,-1.237 -3.868,-2.485 -5.432,-3.737c-1.306,-1.045 -2.42,-2.094 -3.29,-3.143c-0.217,-0.261 -0.418,-0.522 -0.604,-0.783c-0.901,-1.267 -1.422,-2.484 -1.181,-3.696Zm59.976,-19.445c0.346,-1.743 -0.769,-3.435 -2.487,-3.776l-6.227,-1.235c-1.718,-0.341 -3.394,0.797 -3.74,2.54l-6.364,32.078c-0.346,1.743 0.769,3.435 2.487,3.776l6.227,1.235c1.718,0.341 3.394,-0.797 3.74,-2.54l6.364,-32.078Zm14.382,2.853l-6.364,32.078c-0.346,1.743 0.769,3.435 2.487,3.776l6.227,1.235c1.718,0.341 3.394,-0.797 3.74,-2.54l6.364,-32.078c0.346,-1.743 -0.769,-3.435 -2.487,-3.776l-6.227,-1.235c-1.718,-0.341 -3.394,0.797 -3.74,2.54Zm26.718,9.79l-3.987,20.096c-0.346,1.743 0.769,3.435 2.487,3.776l6.227,1.235c1.718,0.341 3.394,-0.797 3.74,-2.54l3.987,-20.096c0.346,-1.743 -0.769,-3.435 -2.487,-3.776l-6.227,-1.235c-1.718,-0.341 -3.394,0.797 -3.74,2.54Zm-69.532,-13.794c0.346,-1.743 -0.769,-3.435 -2.487,-3.776l-6.227,-1.235c-1.718,-0.341 -3.394,0.797 -3.74,2.54l-3.987,20.096c-0.346,1.743 0.769,3.435 2.487,3.776l6.227,1.235c1.718,0.341 3.394,-0.797 3.74,-2.54l3.987,-20.096Z" style="fill:#a855f7;"/></g><g><path d="M5038.882,1583.307l0.771,-3.885c0.622,-3.133 0.089,-5.762 -1.596,-7.888c-1.686,-2.125 -4.172,-3.351 -7.457,-3.678l-24.019,-2.323c-5.719,-0.592 -10.472,-2.376 -14.258,-5.352c-3.787,-2.976 -6.41,-6.916 -7.869,-11.819c-1.459,-4.903 -1.578,-10.435 -0.355,-16.597l2.642,-13.316l21.837,4.332l-1.709,8.616c-0.601,3.029 -0.214,5.575 1.16,7.638c1.374,2.064 3.485,3.269 6.335,3.618l24.019,2.323c4.866,0.531 8.621,2.714 11.265,6.55c2.644,3.835 3.916,8.728 3.816,14.678c2.075,-5.558 5.119,-9.595 9.13,-12.11c4.012,-2.515 8.42,-3.079 13.224,-1.691l22.931,6.992c2.746,0.87 5.147,0.614 7.205,-0.769c2.058,-1.383 3.397,-3.641 4.019,-6.774l1.709,-8.616l21.837,4.332l-2.642,13.316c-1.222,6.162 -3.501,11.246 -6.836,15.252c-3.335,4.006 -7.372,6.651 -12.112,7.936c-4.74,1.285 -9.908,1.047 -15.503,-0.715l-22.151,-6.837c-3.265,-0.973 -6.057,-0.795 -8.375,0.537c-2.318,1.331 -3.787,3.563 -4.409,6.697l-0.774,3.899l-10.469,-3.072c-0.221,-0.065 -0.447,-0.11 -0.676,-0.134l-10.69,-1.14Z" style="fill:#a855f7;fill-rule:nonzero;"/><path d="M5008.402,1801.696l36.388,1.962l-3.024,15.244l-0.022,0.108l-0.014,0.076l-3.98,20.064c-0.559,2.819 -4.098,4.496 -7.898,3.742l-13.77,-2.732c-3.8,-0.754 -6.431,-3.655 -5.872,-6.474l1.99,-10.032l-18.725,-3.715l-1.99,10.032c-0.559,2.819 -4.098,4.496 -7.898,3.742l-13.77,-2.732c-3.8,-0.754 -6.431,-3.655 -5.872,-6.474l3.98,-20.064l0.016,-0.076l0.021,-0.108l3.056,-15.404l35.613,12.489c0.571,0.2 1.168,0.318 1.772,0.351Z" style="fill:#a855f7;"/><path d="M5008.782,1795.13l-79.258,-27.795c-5.073,-1.006 -8.39,-5.862 -7.403,-10.836l8.484,-86.423c2.075,1.474 4.312,2.938 6.68,4.384c31.578,19.27 87.23,36.126 87.23,36.126c0.241,0.073 0.488,0.122 0.738,0.146c0,0 57.872,5.666 94.415,-0.09c2.932,-0.462 5.732,-1.001 8.365,-1.622l-24.714,83.426c-0.987,4.974 -5.906,8.195 -10.979,7.189l-83.558,-4.506Zm30.663,-34.773c9.182,1.822 7.57,-14.034 12.515,-13.777c0.123,0.007 0.245,0.022 0.365,0.046l22.206,4.405c5.393,1.07 -2.738,15.743 6.663,17.608l3.933,-19.824c1.085,-5.471 -2.412,-10.781 -7.805,-11.851l-22.206,-4.405c-5.393,-1.07 -10.653,2.503 -11.738,7.974l-3.933,19.824Zm-88.739,-17.605c9.182,1.822 7.57,-14.034 12.515,-13.777c0.123,0.007 0.245,0.022 0.365,0.046l22.206,4.405c5.393,1.07 -2.738,15.743 6.663,17.608l3.933,-19.824c1.085,-5.471 -2.412,-10.781 -7.805,-11.851l-22.206,-4.405c-5.393,-1.07 -10.653,2.503 -11.738,7.974l-3.933,19.824Z" style="fill:#a855f7;"/><path d="M4922.313,1647.096l13.26,-66.842l112.794,12.033l108.846,31.937l-13.26,66.842c-0.435,2.195 -2.148,3.872 -4.533,5.37c-0.348,0.219 -0.709,0.432 -1.083,0.64c-2.163,1.201 -4.756,2.225 -7.685,3.103c-3.598,1.079 -7.704,1.938 -12.144,2.637c-34.084,5.369 -87.116,0.541 -92.082,0.069c-4.771,-1.461 -55.629,-17.243 -85.082,-35.216c-3.672,-2.241 -7.005,-4.5 -9.839,-6.768c-2.365,-1.893 -4.383,-3.792 -5.959,-5.692c-0.392,-0.473 -0.758,-0.946 -1.094,-1.419c-1.632,-2.295 -2.575,-4.499 -2.139,-6.694Zm108.632,-35.22c0.626,-3.157 -1.392,-6.221 -4.504,-6.839l-11.278,-2.237c-3.112,-0.617 -6.147,1.444 -6.774,4.601l-11.526,58.1c-0.626,3.157 1.392,6.221 4.504,6.839l11.278,2.237c3.112,0.617 6.147,-1.444 6.774,-4.601l11.526,-58.1Zm26.049,5.168l-11.526,58.1c-0.626,3.157 1.392,6.221 4.504,6.839l11.278,2.237c3.112,0.617 6.147,-1.444 6.774,-4.601l11.526,-58.1c0.626,-3.157 -1.392,-6.221 -4.504,-6.839l-11.278,-2.237c-3.112,-0.617 -6.147,1.444 -6.774,4.601Zm48.393,17.733l-7.221,36.399c-0.626,3.157 1.392,6.221 4.504,6.839l11.278,2.237c3.112,0.617 6.147,-1.444 6.774,-4.601l7.221,-36.399c0.626,-3.157 -1.392,-6.221 -4.504,-6.839l-11.278,-2.237c-3.112,-0.617 -6.147,1.444 -6.774,4.601Zm-125.939,-24.985c0.626,-3.157 -1.392,-6.221 -4.504,-6.839l-11.278,-2.237c-3.112,-0.617 -6.147,1.444 -6.774,4.601l-7.221,36.399c-0.626,3.157 1.392,6.221 4.504,6.839l11.278,2.237c3.112,0.617 6.147,-1.444 6.774,-4.601l7.221,-36.399Z" style="fill:#a855f7;"/></g><g><path d="M3545.452,1380.758l-0.834,-3.052c-0.672,-2.461 -1.99,-4.15 -3.952,-5.069c-1.962,-0.918 -4.176,-0.909 -6.641,0.029l-17.995,6.899c-4.298,1.615 -8.331,2.033 -12.098,1.255c-3.767,-0.778 -7.046,-2.659 -9.836,-5.643c-2.79,-2.984 -4.846,-6.896 -6.168,-11.736l-2.857,-10.459l17.152,-4.685l1.849,6.767c0.65,2.379 1.833,4.061 3.551,5.046c1.717,0.985 3.656,1.095 5.817,0.328l17.995,-6.899c3.667,-1.354 7.129,-1.132 10.385,0.667c3.256,1.799 5.909,4.843 7.958,9.131c-0.497,-4.712 0.239,-8.682 2.21,-11.909c1.971,-3.227 4.921,-5.201 8.849,-5.921l18.881,-3.174c2.272,-0.356 3.898,-1.395 4.875,-3.117c0.978,-1.722 1.131,-3.813 0.458,-6.274l-1.849,-6.767l17.152,-4.685l2.857,10.459c1.322,4.84 1.505,9.285 0.549,13.337c-0.956,4.051 -2.899,7.381 -5.829,9.988c-2.93,2.607 -6.708,4.279 -11.335,5.014l-18.268,3.007c-2.681,0.468 -4.612,1.59 -5.794,3.368c-1.182,1.777 -1.437,3.896 -0.765,6.357l0.837,3.063l-8.577,1.535c-0.181,0.032 -0.359,0.081 -0.531,0.145l-8.047,2.994Z" style="fill:#a855f7;fill-rule:nonzero;"/><path d="M3601.489,1547.708l26.706,-11.564l3.271,11.973l0.023,0.085l0.017,0.06l4.305,15.759c0.605,2.214 -1.327,4.674 -4.312,5.489l-10.815,2.954c-2.985,0.815 -5.899,-0.321 -6.504,-2.535l-2.152,-7.88l-14.707,4.018l2.152,7.88c0.605,2.214 -1.327,4.674 -4.312,5.489l-10.815,2.954c-2.985,0.815 -5.899,-0.321 -6.504,-2.535l-4.305,-15.759l-0.016,-0.06l-0.024,-0.085l-3.305,-12.099l29.904,-3.764c0.48,-0.06 0.948,-0.188 1.392,-0.381Z" style="fill:#a855f7;"/><path d="M3599.421,1542.88l-66.553,8.378c-3.984,1.088 -8.085,-1.2 -9.153,-5.106l-24.732,-64.792c2.009,0.314 4.129,0.564 6.337,0.753c29.437,2.52 75.22,-5.264 75.22,-5.264c0.198,-0.034 0.392,-0.087 0.579,-0.158c0,0 43.382,-16.573 67.449,-33.709c1.931,-1.375 3.74,-2.758 5.401,-4.14l12.065,68.433c1.067,3.907 -1.301,7.962 -5.285,9.051l-61.327,26.555Zm9.524,-35.78c7.212,-1.97 0.41,-12.728 4.035,-14.307c0.09,-0.039 0.183,-0.071 0.278,-0.097l17.441,-4.764c4.236,-1.157 3.653,12.228 11.037,10.211l-4.253,-15.571c-1.174,-4.297 -5.566,-6.846 -9.802,-5.689l-17.441,4.764c-4.236,1.157 -6.722,5.585 -5.548,9.882l4.253,15.571Zm-69.697,19.039c7.212,-1.97 0.41,-12.728 4.035,-14.307c0.09,-0.039 0.183,-0.071 0.278,-0.097l17.441,-4.764c4.236,-1.157 3.653,12.228 11.037,10.211l-4.253,-15.571c-1.174,-4.297 -5.566,-6.846 -9.802,-5.689l-17.441,4.764c-4.236,1.157 -6.722,5.585 -5.548,9.882l4.253,15.571Z" style="fill:#a855f7;"/><path d="M3484.868,1467.889l-14.341,-52.499l84.905,-31.594l89.176,-15.96l14.341,52.499c0.471,1.724 -0.156,3.533 -1.326,5.453c-0.171,0.28 -0.353,0.561 -0.546,0.843c-1.118,1.629 -2.606,3.285 -4.387,4.956c-2.187,2.053 -4.816,4.13 -7.74,6.212c-22.448,15.983 -62.071,31.43 -65.789,32.863c-3.931,0.656 -45.904,7.499 -73.36,5.149c-3.423,-0.293 -6.61,-0.72 -9.444,-1.331c-2.365,-0.51 -4.484,-1.149 -6.288,-1.945c-0.449,-0.198 -0.879,-0.406 -1.288,-0.624c-1.984,-1.059 -3.444,-2.298 -3.914,-4.022Zm65.091,-63.883c-0.677,-2.48 -3.212,-3.95 -5.656,-3.283l-8.858,2.42c-2.444,0.668 -3.879,3.223 -3.202,5.702l12.466,45.633c0.677,2.48 3.212,3.95 5.656,3.283l8.858,-2.42c2.444,-0.668 3.879,-3.223 3.202,-5.702l-12.466,-45.633Zm20.46,-5.589l12.466,45.633c0.677,2.48 3.212,3.95 5.656,3.283l8.858,-2.42c2.444,-0.668 3.879,-3.223 3.202,-5.702l-12.466,-45.633c-0.677,-2.48 -3.212,-3.95 -5.656,-3.283l-8.858,2.42c-2.444,0.668 -3.879,3.223 -3.202,5.702Zm40.907,-4.57l7.81,28.588c0.677,2.48 3.212,3.95 5.656,3.283l8.858,-2.42c2.444,-0.668 3.879,-3.223 3.202,-5.702l-7.81,-28.588c-0.677,-2.48 -3.212,-3.95 -5.656,-3.283l-8.858,2.42c-2.444,0.668 -3.879,3.223 -3.202,5.702Zm-98.915,27.021c-0.677,-2.48 -3.212,-3.95 -5.656,-3.283l-8.858,2.42c-2.444,0.668 -3.879,3.223 -3.202,5.702l7.81,28.588c0.677,2.48 3.212,3.95 5.656,3.283l8.858,-2.42c2.444,-0.668 3.879,-3.223 3.202,-5.702l-7.81,-28.588Z" style="fill:#a855f7;"/></g><g><path d="M522.128,1598.382l-0.546,-2.118c-0.44,-1.708 -1.334,-2.889 -2.682,-3.543c-1.347,-0.654 -2.878,-0.669 -4.591,-0.045l-12.507,4.592c-2.987,1.074 -5.779,1.323 -8.375,0.749c-2.596,-0.575 -4.844,-1.907 -6.743,-3.998c-1.899,-2.09 -3.282,-4.815 -4.148,-8.173l-1.872,-7.258l11.902,-3.07l1.211,4.696c0.426,1.651 1.227,2.825 2.405,3.523c1.177,0.698 2.517,0.793 4.017,0.284l12.507,-4.592c2.548,-0.9 4.939,-0.712 7.172,0.563c2.233,1.276 4.037,3.406 5.411,6.39c-0.297,-3.262 0.251,-5.999 1.645,-8.21c1.394,-2.211 3.453,-3.546 6.175,-4.006l13.082,-2.008c1.574,-0.224 2.708,-0.926 3.401,-2.106c0.693,-1.18 0.819,-2.624 0.379,-4.332l-1.211,-4.696l11.902,-3.07l1.872,7.258c0.866,3.358 0.949,6.433 0.248,9.224c-0.701,2.791 -2.077,5.073 -4.128,6.847c-2.051,1.774 -4.679,2.891 -7.885,3.354l-12.657,1.898c-1.858,0.297 -3.204,1.054 -4.038,2.271c-0.835,1.217 -1.032,2.679 -0.591,4.387l0.548,2.125l-5.944,0.977c-0.125,0.021 -0.249,0.052 -0.368,0.095l-5.592,1.99Z" style="fill:#a855f7;fill-rule:nonzero;"/><path d="M559.217,1714.337l18.574,-7.73l2.143,8.308l0.015,0.059l0.011,0.041l2.82,10.936c0.396,1.537 -0.963,3.218 -3.034,3.752l-7.505,1.936c-2.071,0.534 -4.074,-0.28 -4.471,-1.816l-1.41,-5.468l-10.206,2.632l1.41,5.468c0.396,1.537 -0.963,3.218 -3.034,3.752l-7.505,1.936c-2.071,0.534 -4.074,-0.28 -4.471,-1.816l-2.82,-10.936l-0.01,-0.042l-0.016,-0.059l-2.165,-8.396l20.708,-2.307c0.332,-0.037 0.657,-0.121 0.966,-0.249Z" style="fill:#a855f7;"/><path d="M557.835,1710.979l-46.086,5.135c-2.765,0.713 -5.577,-0.909 -6.276,-3.62l-16.457,-45.031c1.385,0.237 2.848,0.43 4.373,0.583c20.323,2.032 52.047,-2.897 52.047,-2.897c0.137,-0.021 0.272,-0.056 0.402,-0.104c0,0 30.151,-11.028 46.956,-22.636c1.349,-0.931 2.613,-1.87 3.774,-2.808l7.665,47.423c0.699,2.711 -0.978,5.491 -3.743,6.204l-42.653,17.751Zm6.936,-24.639c5.005,-1.291 0.409,-8.794 2.93,-9.85c0.063,-0.026 0.127,-0.047 0.193,-0.064l12.103,-3.121c2.939,-0.758 2.404,8.488 7.528,7.167l-2.787,-10.805c-0.769,-2.982 -3.78,-4.787 -6.719,-4.029l-12.103,3.121c-2.939,0.758 -4.702,3.794 -3.933,6.776l2.787,10.805Zm-48.365,12.474c5.005,-1.291 0.409,-8.794 2.93,-9.85c0.063,-0.026 0.127,-0.047 0.193,-0.064l12.103,-3.121c2.939,-0.758 2.404,8.488 7.528,7.167l-2.787,-10.805c-0.769,-2.982 -3.78,-4.787 -6.719,-4.029l-12.103,3.121c-2.939,0.758 -4.702,3.794 -3.933,6.776l2.787,10.805Z" style="fill:#a855f7;"/><path d="M479.391,1658.013l-9.396,-36.431l59.001,-21.002l61.799,-10.153l9.396,36.431c0.309,1.196 -0.142,2.441 -0.97,3.757c-0.121,0.192 -0.25,0.384 -0.386,0.577c-0.789,1.115 -1.834,2.245 -3.081,3.383c-1.532,1.398 -3.369,2.808 -5.411,4.218c-15.674,10.827 -43.216,21.114 -45.8,22.068c-2.723,0.415 -31.805,4.731 -50.76,2.836c-2.363,-0.236 -4.562,-0.563 -6.515,-1.013c-1.63,-0.376 -3.088,-0.838 -4.327,-1.406c-0.308,-0.141 -0.603,-0.289 -0.884,-0.444c-1.361,-0.751 -2.358,-1.623 -2.666,-2.819Zm45.623,-43.517c-0.444,-1.721 -2.181,-2.762 -3.877,-2.325l-6.147,1.585c-1.696,0.437 -2.713,2.19 -2.269,3.91l8.167,31.666c0.444,1.721 2.181,2.762 3.877,2.325l6.147,-1.585c1.696,-0.437 2.713,-2.19 2.269,-3.91l-8.167,-31.666Zm14.198,-3.662l8.167,31.666c0.444,1.721 2.181,2.762 3.877,2.325l6.147,-1.585c1.696,-0.437 2.713,-2.19 2.269,-3.91l-8.167,-31.666c-0.444,-1.721 -2.181,-2.762 -3.877,-2.325l-6.147,1.585c-1.696,0.437 -2.713,2.19 -2.269,3.91Zm28.321,-2.756l5.116,19.838c0.444,1.721 2.181,2.762 3.877,2.325l6.147,-1.585c1.696,-0.437 2.713,-2.19 2.269,-3.91l-5.116,-19.838c-0.444,-1.721 -2.181,-2.762 -3.877,-2.325l-6.147,1.585c-1.696,0.437 -2.713,2.19 -2.269,3.91Zm-68.641,17.703c-0.444,-1.721 -2.181,-2.762 -3.877,-2.325l-6.147,1.585c-1.696,0.437 -2.713,2.19 -2.269,3.91l5.116,19.838c0.444,1.721 2.181,2.762 3.877,2.325l6.147,-1.585c1.696,-0.437 2.713,-2.19 2.269,-3.91l-5.116,-19.838Z" style="fill:#a855f7;"/></g><g><path d="M1161.325,1744.024l0.55,-2.117c0.443,-1.707 0.235,-3.173 -0.626,-4.399c-0.861,-1.226 -2.191,-1.982 -3.992,-2.267l-13.164,-2.054c-3.133,-0.51 -5.695,-1.647 -7.686,-3.409c-1.991,-1.762 -3.31,-4.018 -3.956,-6.768c-0.646,-2.749 -0.533,-5.802 0.339,-9.159l1.885,-7.254l11.896,3.091l-1.22,4.694c-0.429,1.65 -0.298,3.066 0.393,4.247c0.691,1.182 1.816,1.914 3.375,2.198l13.164,2.054c2.665,0.45 4.664,1.774 5.998,3.973c1.334,2.199 1.877,4.937 1.63,8.213c1.323,-2.997 3.13,-5.124 5.422,-6.38c2.292,-1.257 4.74,-1.426 7.343,-0.506l12.414,4.592c1.485,0.568 2.817,0.504 3.996,-0.192c1.179,-0.696 1.99,-1.897 2.433,-3.604l1.22,-4.694l11.896,3.091l-1.885,7.254c-0.872,3.357 -2.292,6.085 -4.259,8.186c-1.967,2.101 -4.277,3.429 -6.931,3.984c-2.654,0.555 -5.495,0.258 -8.522,-0.893l-11.989,-4.482c-1.768,-0.642 -3.313,-0.633 -4.633,0.026c-1.32,0.659 -2.202,1.842 -2.646,3.549l-0.552,2.124l-5.671,-2.03c-0.12,-0.043 -0.243,-0.075 -0.368,-0.096l-5.855,-0.973Z" style="fill:#a855f7;fill-rule:nonzero;"/><path d="M1137.492,1863.411l19.992,2.253l-2.158,8.304l-0.016,0.059l-0.01,0.042l-2.84,10.931c-0.399,1.536 -2.404,2.346 -4.474,1.808l-7.501,-1.949c-2.07,-0.538 -3.427,-2.222 -3.028,-3.757l1.42,-5.465l-10.201,-2.651l-1.42,5.465c-0.399,1.536 -2.404,2.346 -4.474,1.808l-7.501,-1.949c-2.07,-0.538 -3.427,-2.222 -3.028,-3.757l2.84,-10.931l0.011,-0.041l0.015,-0.059l2.18,-8.392l19.226,8.03c0.308,0.129 0.633,0.213 0.965,0.251Z" style="fill:#a855f7;"/><path d="M1137.913,1859.804l-42.789,-17.872c-2.764,-0.718 -4.436,-3.501 -3.731,-6.211l7.46,-47.36c1.096,0.879 2.282,1.758 3.541,2.631c16.784,11.638 46.915,22.721 46.915,22.721c0.13,0.048 0.265,0.083 0.402,0.104c0,0 31.715,4.987 52.041,2.991c1.631,-0.16 3.192,-0.367 4.663,-0.624l-16.308,45.185c-0.704,2.71 -3.519,4.327 -6.283,3.609l-45.909,-5.175Zm18.02,-18.178c5.002,1.3 4.624,-7.491 7.342,-7.19c0.067,0.008 0.134,0.02 0.2,0.037l12.097,3.143c2.938,0.763 -2.016,8.589 3.105,9.92l2.806,-10.8c0.774,-2.98 -0.982,-6.02 -3.92,-6.783l-12.097,-3.143c-2.938,-0.763 -5.952,1.036 -6.726,4.017l-2.806,10.8Zm-48.343,-12.561c5.002,1.3 4.624,-7.491 7.342,-7.19c0.067,0.008 0.134,0.02 0.2,0.037l12.097,3.143c2.938,0.763 -2.016,8.589 3.105,9.92l2.806,-10.8c0.774,-2.98 -0.982,-6.02 -3.92,-6.783l-12.097,-3.143c-2.938,-0.763 -5.952,1.036 -6.726,4.017l-2.806,10.8Z" style="fill:#a855f7;"/><path d="M1095.022,1775.428l9.461,-36.414l61.781,10.265l58.963,21.108l-9.461,36.414c-0.311,1.196 -1.309,2.065 -2.671,2.814c-0.199,0.109 -0.405,0.215 -0.618,0.318c-1.231,0.592 -2.693,1.073 -4.335,1.463c-2.018,0.479 -4.309,0.82 -6.778,1.062c-18.959,1.861 -48.033,-2.508 -50.755,-2.927c-2.583,-0.959 -30.105,-11.295 -45.76,-22.15c-1.952,-1.353 -3.716,-2.706 -5.205,-4.047c-1.243,-1.12 -2.294,-2.231 -3.101,-3.329c-0.201,-0.273 -0.387,-0.546 -0.557,-0.817c-0.826,-1.317 -1.274,-2.563 -0.964,-3.758Zm61.008,-15.913c0.447,-1.72 -0.567,-3.474 -2.262,-3.914l-6.144,-1.596c-1.695,-0.441 -3.435,0.598 -3.882,2.318l-8.224,31.652c-0.447,1.72 0.567,3.474 2.262,3.914l6.144,1.596c1.695,0.441 3.435,-0.598 3.882,-2.318l8.224,-31.652Zm14.191,3.687l-8.224,31.652c-0.447,1.72 0.567,3.474 2.262,3.914l6.144,1.596c1.695,0.441 3.435,-0.598 3.882,-2.318l8.224,-31.652c0.447,-1.72 -0.567,-3.474 -2.262,-3.914l-6.144,-1.596c-1.695,-0.441 -3.435,0.598 -3.882,2.318Zm26.101,11.332l-5.152,19.829c-0.447,1.72 0.567,3.474 2.262,3.914l6.144,1.596c1.695,0.441 3.435,-0.598 3.882,-2.318l5.152,-19.829c0.447,-1.72 -0.567,-3.474 -2.262,-3.914l-6.144,-1.596c-1.695,-0.441 -3.435,0.598 -3.882,2.318Zm-68.609,-17.827c0.447,-1.72 -0.567,-3.474 -2.262,-3.914l-6.144,-1.596c-1.695,-0.441 -3.435,0.598 -3.882,2.318l-5.152,19.829c-0.447,1.72 0.567,3.474 2.262,3.914l6.144,1.596c1.695,0.441 3.435,-0.598 3.882,-2.318l5.152,-19.829Z" style="fill:#a855f7;"/></g></g></svg>