<?xml version="1.0" encoding="UTF-8" standalone="no"?><!DOCTYPE svg PUBLIC "-//W3C//DTD SVG 1.1//EN" "http://www.w3.org/Graphics/SVG/1.1/DTD/svg11.dtd"><svg width="100%" height="100%" viewBox="0 0 2622 3544" version="1.1" xmlns="http://www.w3.org/2000/svg" xmlns:xlink="http://www.w3.org/1999/xlink" xml:space="preserve" xmlns:serif="http://www.serif.com/" style="fill-rule:evenodd;clip-rule:evenodd;stroke-linejoin:round;stroke-miterlimit:2;"><rect id="Artboard1" x="0" y="0" width="2621.09" height="3543.307" style="fill:none;"/><clipPath id="_clip1"><rect x="0" y="0" width="2621.09" height="3543.307"/></clipPath><g clip-path="url(#_clip1)"><g><path d="M1182.344,611.464l0,-45.295c0,-36.527 -11.99,-64.835 -35.97,-84.925c-23.98,-20.09 -55.031,-28.308 -93.153,-24.656l-278.536,27.395c-66.406,6.088 -124.511,-3.348 -174.316,-28.308c-49.805,-24.96 -88.541,-63.313 -116.211,-115.06c-27.669,-51.747 -41.504,-113.538 -41.504,-185.374l0,-155.24l258.246,0l0,100.449c0,35.309 10.145,63.009 30.436,83.099c20.291,20.09 47.038,28.917 80.241,26.482l278.536,-27.395c56.568,-4.87 104.221,11.262 142.957,48.398c38.737,37.136 64.254,89.187 76.551,156.153c11.068,-66.966 36.585,-119.017 76.551,-156.153c39.967,-37.136 88.849,-53.269 146.647,-48.398l276.692,27.395c33.203,3.653 59.95,-4.566 80.241,-24.656c20.291,-20.09 30.436,-48.398 30.436,-84.925l0,-100.449l258.246,0l0,155.24c0,71.836 -14.449,133.932 -43.348,186.288c-28.899,52.355 -68.866,91.013 -119.9,115.973c-51.034,24.96 -110.369,33.787 -178.005,26.482l-267.469,-27.395c-39.352,-3.653 -70.71,4.566 -94.075,24.656c-23.365,20.09 -35.048,48.398 -35.048,84.925l0,45.459l-126.049,-11.159c-2.659,-0.235 -5.333,-0.235 -7.992,0l-124.205,10.996Z" style="fill:#a855f7;fill-rule:nonzero;"/><path d="M1328.495,3128.934l418.449,-58.962l0,177.716l-0.009,1.259l0.009,0.89l0,233.917c0,32.869 -36.483,59.554 -81.42,59.554l-162.84,0c-44.937,0 -81.42,-26.685 -81.42,-59.554l0,-116.959l-221.437,0l0,116.959c0,32.869 -36.483,59.554 -81.42,59.554l-162.84,0c-44.937,0 -81.42,-26.685 -81.42,-59.554l0,-233.917l0.009,-0.89l-0.009,-1.259l0,-179.586l433.393,60.838c6.951,0.976 14.005,0.974 20.956,-0.005Z" style="fill:#a855f7;"/><path d="M1317.998,3054.435l-964.545,-135.398c-59.99,0 -108.695,-47.08 -108.695,-105.069l-98.541,-988.271c26.942,11.916 55.689,23.362 85.906,34.306c402.796,145.884 1074.061,211.113 1074.061,211.113c2.901,0.28 5.822,0.28 8.722,0c0,0 671.265,-65.229 1074.061,-211.113c32.323,-11.707 62.964,-23.988 91.513,-36.805l-92.886,990.769c0,57.989 -48.704,105.069 -108.695,105.069l-960.902,135.398Zm-291.695,-690.78l0,228.357c0,63.017 -51.162,114.179 -114.179,114.179l-259.47,0c-63.017,0 -114.179,-51.162 -114.179,-114.179l0,-228.357c0,-63.017 51.162,-114.179 114.179,-114.179l259.47,0c63.017,0 114.179,51.162 114.179,114.179Zm1056.312,0l0,228.357c0,63.017 -51.162,114.179 -114.179,114.179l-259.47,0c-63.017,0 -114.179,-51.162 -114.179,-114.179l0,-228.357c0,-63.017 51.162,-114.179 114.179,-114.179l259.47,0c63.017,0 114.179,51.162 114.179,114.179Z" style="fill:#a855f7;"/><path d="M-0,1586.376l0,-779.259l1310.545,-116.024l1310.545,116.024l0,779.259c0,25.587 -15.704,48.213 -39.452,70.324c-3.465,3.226 -7.094,6.42 -10.882,9.584c-21.897,18.288 -49.087,35.54 -80.431,51.908c-38.505,20.107 -83.281,38.881 -132.218,56.605c-375.691,136.067 -989.989,199.922 -1047.562,205.687c-57.583,-5.766 -671.873,-69.621 -1047.561,-205.687c-46.838,-16.964 -89.864,-34.889 -127.228,-54.025c-31.186,-15.972 -58.428,-32.786 -80.652,-50.589c-5.533,-4.433 -10.756,-8.926 -15.65,-13.483c-23.748,-22.111 -39.452,-44.737 -39.452,-70.324Zm1156.517,-636.792c0,-36.805 -29.881,-66.685 -66.685,-66.685l-133.37,0c-36.805,0 -66.685,29.881 -66.685,66.685l0,677.353c0,36.805 29.881,66.685 66.685,66.685l133.37,0c36.805,0 66.685,-29.881 66.685,-66.685l0,-677.353Zm308.056,0l0,677.353c0,36.805 29.881,66.685 66.685,66.685l133.37,0c36.805,0 66.685,-29.881 66.685,-66.685l0,-677.353c0,-36.805 -29.881,-66.685 -66.685,-66.685l-133.37,0c-36.805,0 -66.685,29.881 -66.685,66.685Zm590.643,91.219l0,424.349c0,36.805 29.881,66.685 66.685,66.685l133.37,0c36.805,0 66.685,-29.881 66.685,-66.685l0,-424.349c0,-36.805 -29.881,-66.685 -66.685,-66.685l-133.37,0c-36.805,0 -66.685,29.881 -66.685,66.685Zm-1489.342,-0c0,-36.805 -29.881,-66.685 -66.685,-66.685l-133.37,0c-36.805,0 -66.685,29.881 -66.685,66.685l0,424.349c0,36.805 29.881,66.685 66.685,66.685l133.37,0c36.805,0 66.685,-29.881 66.685,-66.685l0,-424.349Z" style="fill:#a855f7;"/></g></g></svg>